<svg width="305" height="407" viewBox="0 0 305 407" fill="none" xmlns="http://www.w3.org/2000/svg">
<rect x="71" y="5" width="208" height="397" rx="21" fill="black" stroke="black" stroke-width="10"/>
<rect x="76" y="46" width="208" height="312" fill="white"/>
<rect x="66" y="117" width="208" height="170" fill="white"/>
<path d="M260.5 200H273V78.5L271 75L275.5 56.5H282L286 75L284 78.5V200H297.5C301.23 200 304 203.27 304 207V232C304 232 298.5 236 298.5 246C298.5 256 304 260 304 260V326.5C304 332.702 300.852 337.081 296.5 341.5C292.387 345.676 286.5 348 283.5 348H273C270 348 263.531 344.986 259.5 340.5C255.525 336.075 253.5 332.448 253.5 326.5V260C253.5 260 259 255.5 259 246C259 236.5 253.5 232 253.5 232V207C253.5 203.134 256.634 200 260.5 200Z" fill="black" stroke="black" stroke-width="2"/>
<rect x="267" y="263" width="7" height="69" rx="3" fill="#D9D9D9"/>
<rect x="283" y="263" width="7" height="69" rx="3" fill="#D9D9D9"/>
<rect x="140" y="21" width="70" height="7" rx="3" fill="white"/>
<rect x="218" y="19" width="11" height="11" rx="5.5" fill="white"/>
<rect x="158" y="365" width="33" height="33" rx="16.5" fill="white"/>
<path d="M32 141.5V161.5L12.5 161L7 169.5L17 186L0 196.5V206.5L17 217L7 232.5L12.5 242H32V261.5L40.5 266.5L57 257L66 274H77.5L86.5 257L102 266.5L112 261.5V242H132L137.5 232.5L128.5 217L144.5 206.5V196.5L128.5 186L137.5 169.5L132 161L112 161.5V141.5L104 136.5L87.5 146L77.5 129H66L57.5 145.5L40.5 136.5L32 141.5Z" fill="black"/>
<circle cx="72.4283" cy="201.86" r="43.5" fill="white"/>
<circle cx="72.4976" cy="201.139" r="31.5" fill="white"/>
<circle cx="72.4976" cy="201.139" r="31.5" fill="white" fill-opacity="0.44"/>
<circle cx="72.4976" cy="201.139" r="31.5" stroke="black" stroke-width="6"/>
<path d="M102.999 79.4733L103.557 88.0045L95.2255 88.3358L93.1168 92.1151L97.8431 98.8742L90.8848 103.828L91.164 108.093L98.7087 112.098L94.8759 118.989L97.4873 122.887L105.805 122.343L106.35 130.661L110.115 132.556L116.888 128.043L121.202 135.043L126.107 134.722L129.472 127.219L136.349 130.839L140.475 128.427L139.93 120.109L148.461 119.551L150.542 115.345L146.27 108.984L152.802 104.059L152.523 99.793L145.405 95.7608L148.783 88.4712L146.2 84.999L137.682 85.7708L137.124 77.2395L133.572 75.3301L126.799 79.8431L122.059 72.8708L117.153 73.1919L113.988 80.4675L106.485 77.1031L102.999 79.4733Z" fill="black"/>
<circle cx="121.93" cy="104.092" r="18.5952" transform="rotate(-3.7452 121.93 104.092)" fill="white"/>
<circle cx="121.939" cy="103.782" r="11.7479" transform="rotate(-3.7452 121.939 103.782)" fill="white"/>
<circle cx="121.939" cy="103.782" r="11.7479" transform="rotate(-3.7452 121.939 103.782)" fill="white" fill-opacity="0.44"/>
<circle cx="121.939" cy="103.782" r="11.7479" transform="rotate(-3.7452 121.939 103.782)" stroke="black" stroke-width="6"/>
<path d="M150.411 119.091L151.434 130.823L139.97 131.528L137.179 136.796L143.89 145.962L134.455 152.992L134.967 158.858L145.477 164.147L140.404 173.751L144.117 179.042L155.555 178.043L156.554 189.482L161.796 191.98L170.988 185.562L177.138 195.074L183.883 194.485L188.292 184.052L197.871 188.831L203.481 185.386L202.482 173.948L214.214 172.924L216.954 167.07L210.881 158.439L219.729 151.46L219.217 145.595L209.294 140.254L213.729 130.115L210.067 125.411L198.361 126.728L197.338 114.996L192.389 112.473L183.197 118.89L176.46 109.43L169.715 110.019L165.573 120.132L155.141 115.723L150.411 119.091Z" fill="black"/>
<circle cx="177.215" cy="152.428" r="25.6135" transform="rotate(-4.98763 177.215 152.428)" fill="white"/>
<circle cx="177.219" cy="152.001" r="17.3141" transform="rotate(-4.98763 177.219 152.001)" fill="white"/>
<circle cx="177.219" cy="152.001" r="17.3141" transform="rotate(-4.98763 177.219 152.001)" fill="white" fill-opacity="0.44"/>
<circle cx="177.219" cy="152.001" r="17.3141" transform="rotate(-4.98763 177.219 152.001)" stroke="black" stroke-width="6"/>
</svg>
