<?xml version="1.0" encoding="UTF-8"?>
<!DOCTYPE svg PUBLIC "-//W3C//DTD SVG 1.1//EN" "http://www.w3.org/Graphics/SVG/1.1/DTD/svg11.dtd">
<!-- Creator: CorelDRAW -->
<svg xmlns="http://www.w3.org/2000/svg" xml:space="preserve" width="6.82666in" height="6.82666in" style="shape-rendering:geometricPrecision; text-rendering:geometricPrecision; image-rendering:optimizeQuality; fill-rule:evenodd; clip-rule:evenodd"
viewBox="0 0 6.82666 6.82666"
 xmlns:xlink="http://www.w3.org/1999/xlink">
 <defs>
  <style type="text/css">
   <![CDATA[
    .fil1 {fill:none}
    .fil0 {fill:#424242}
    .fil2 {fill:#FFFFFE;fill-rule:nonzero}
   ]]>
  </style>
 </defs>
 <rect class="fil0" width="6.82666" height="6.82666"/>
 <g id="Layer_x0020_1">
  <metadata id="CorelCorpID_0Corel-Layer"/>
  <g id="_259932752">
   <rect id="_259932344" class="fil1" width="6.82666" height="6.82666"/>
   <rect id="_259932392" class="fil1" x="0.853331" y="0.853331" width="5.12" height="5.12"/>
  </g>
  <g id="_259932512">
   <path id="_259932704" class="fil2" d="M3.46787 3.35644c-0.285358,0 -0.543732,-0.115693 -0.730768,-0.30272 -0.187039,-0.187028 -0.302736,-0.445402 -0.302736,-0.73074 0,-0.285358 0.115693,-0.543736 0.302732,-0.730772 0.187035,-0.187039 0.445413,-0.302732 0.730772,-0.302732 0.285343,0 0.543717,0.115697 0.730744,0.302736 0.187028,0.187035 0.30272,0.445413 0.30272,0.730768 0,0.285343 -0.115689,0.543713 -0.30272,0.730744 -0.187024,0.18702 -0.445394,0.302717 -0.730744,0.302717zm-0.579933 -0.453555c0.148417,0.148409 0.353461,0.240217 0.579933,0.240217 0.226465,0 0.4315,-0.0918071 0.579909,-0.240213 0.148413,-0.148413 0.240217,-0.353453 0.240217,-0.579909 0,-0.226469 -0.0918071,-0.431516 -0.240217,-0.579933 -0.148413,-0.148421 -0.353457,-0.240232 -0.579909,-0.240232 -0.226472,0 -0.43152,0.0918071 -0.579937,0.240228 -0.148421,0.148417 -0.240228,0.353465 -0.240228,0.579937 0,0.226449 0.091811,0.431492 0.240232,0.579906z"/>
   <path id="_259932632" class="fil2" d="M3.46787 1.06667c-0.352484,0 -0.672094,0.160232 -0.903866,0.419272 -0.234591,0.262189 -0.379697,0.625528 -0.379697,1.02785 0,0.161441 0.0232677,0.316232 0.0662441,0.460524 0.0446614,0.149941 0.11026,0.28861 0.19285,0.411705l1.02447 1.52659 1.02446 -1.52659c0.0825748,-0.123094 0.148161,-0.261776 0.192819,-0.411724 0.0429685,-0.144283 0.0662362,-0.299067 0.0662362,-0.460504l0 -7.87402e-006c0,-0.402315 -0.145106,-0.765654 -0.379689,-1.02784 -0.231772,-0.259043 -0.551366,-0.419272 -0.903827,-0.419272l-3.93701e-006 0zm-1.0622 0.277602c0.271394,-0.303323 0.646913,-0.490941 1.0622,-0.490941l3.93701e-006 0c0.415268,0 0.790768,0.187618 1.06216,0.490941 0.268571,0.300169 0.434697,0.713732 0.434697,1.16951l0 7.87402e-006c0,0.181791 -0.0264882,0.357071 -0.0754094,0.521339 -0.0505906,0.16987 -0.125539,0.327937 -0.220315,0.46922l-1.1128 1.65822 -0.0883346 0.13163 -0.0883346 -0.13163 -1.1128 -1.65822c-0.0947874,-0.141276 -0.169752,-0.299335 -0.220346,-0.469201 -0.0489291,-0.164276 -0.0754173,-0.339559 -0.0754173,-0.521358 0,-0.455783 0.16613,-0.869343 0.434705,-1.16952z"/>
   <path id="_259932368" class="fil2" d="M3.99978 4.7015c0.212508,0.0257677 0.403984,0.0650866 0.563461,0.114579 0.333744,0.103579 0.540169,0.262059 0.540169,0.450882 0,0.188827 -0.206425,0.347303 -0.540169,0.450882 -0.296291,0.0919488 -0.703,0.148823 -1.14991,0.148823 -0.446906,0 -0.853614,-0.056874 -1.14991,-0.148823 -0.333744,-0.103579 -0.540169,-0.262055 -0.540169,-0.450882 0,-0.188823 0.206425,-0.347303 0.540169,-0.450882 0.184512,-0.0572638 0.411862,-0.100917 0.665063,-0.125709l0.13887 0.206933c-0.286382,0.020185 -0.54122,0.0649252 -0.740043,0.126626 -0.238472,0.0740118 -0.38598,0.16087 -0.38598,0.243031 0,0.0821575 0.147508,0.16902 0.38598,0.243031 0.275925,0.0856299 0.659732,0.138594 1.08602,0.138594 0.426283,0 0.810091,-0.0529646 1.08602,-0.138594 0.238472,-0.0740118 0.38598,-0.160874 0.38598,-0.243031 0,-0.0821614 -0.147508,-0.16902 -0.38598,-0.243031 -0.174559,-0.0541732 -0.392311,-0.0952638 -0.636661,-0.11815l0.137091 -0.20428z"/>
  </g>
 </g>
</svg>
